<svg xmlns="http://www.w3.org/2000/svg" version="1.1" xmlns:xlink="http://www.w3.org/1999/xlink" xmlns:svgjs="http://svgjs.dev/svgjs" viewBox="0 0 800 400"><path d="M5.829596519470215,233.18385314941406C5.829596519470215,233.18385314941406,38.11659240722656,159.64125061035156,38.11659240722656,159.64125061035156C38.11659240722656,159.64125061035156,81.1659164428711,84.304931640625,81.1659164428711,84.304931640625C81.1659164428711,84.304931640625,129.59640502929688,156.95066833496094,129.59640502929688,156.95066833496094C129.59640502929688,156.95066833496094,141.25559997558594,201.79371643066406,141.25559997558594,201.79371643066406C141.25559997558594,201.79371643066406,173.5426025390625,260.9865417480469,173.5426025390625,260.9865417480469C173.5426025390625,260.9865417480469,197.75784301757812,299.55157470703125,197.75784301757812,299.55157470703125C197.75784301757812,299.55157470703125,292.8251037597656,239.46188354492188,292.8251037597656,239.46188354492188C292.8251037597656,239.46188354492188,315.24664306640625,204.4842987060547,315.24664306640625,204.4842987060547C315.24664306640625,204.4842987060547,339.4618835449219,171.30044555664062,339.4618835449219,171.30044555664062C339.4618835449219,171.30044555664062,378.92376708984375,110.31390380859375,378.92376708984375,110.31390380859375C378.92376708984375,110.31390380859375,404.9327392578125,186.54708862304688,404.9327392578125,186.54708862304688C404.9327392578125,186.54708862304688,431.83856201171875,262.7802734375,431.83856201171875,262.7802734375C431.83856201171875,262.7802734375,445.2914733886719,297.7578430175781,445.2914733886719,297.7578430175781C445.2914733886719,297.7578430175781,473.09417724609375,339.0134582519531,473.09417724609375,339.0134582519531C473.09417724609375,339.0134582519531,500,381.1659240722656,500,381.1659240722656C500,381.1659240722656,534.0806884765625,323.7668151855469,534.0806884765625,323.7668151855469C534.0806884765625,323.7668151855469,550.2242431640625,267.26458740234375,550.2242431640625,267.26458740234375C550.2242431640625,267.26458740234375,562.7802734375,219.73094177246094,562.7802734375,219.73094177246094C562.7802734375,219.73094177246094,578.0269165039062,178.475341796875,578.0269165039062,178.475341796875C578.0269165039062,178.475341796875,594.17041015625,131.83856201171875,594.17041015625,131.83856201171875C594.17041015625,131.83856201171875,610.3139038085938,95.96412658691406,610.3139038085938,95.96412658691406C610.3139038085938,95.96412658691406,642.6008911132812,110.31390380859375,642.6008911132812,110.31390380859375C642.6008911132812,110.31390380859375,676.681640625,147.9820556640625,676.681640625,147.9820556640625C676.681640625,147.9820556640625,692.8251342773438,172.1973114013672,692.8251342773438,172.1973114013672C692.8251342773438,172.1973114013672,737.6681518554688,213.45291137695312,737.6681518554688,213.45291137695312C737.6681518554688,213.45291137695312,769.9551391601562,245.7399139404297,769.9551391601562,245.7399139404297" fill="none" stroke-width="25" stroke="url(&quot;#SvgjsLinearGradient1002&quot;)" stroke-linecap="round"></path><defs><linearGradient id="SvgjsLinearGradient1002"><stop stop-color="hsl(37, 99%, 67%)" offset="0"></stop><stop stop-color="hsl(316, 73%, 52%)" offset="1"></stop></linearGradient></defs></svg>